<svg xmlns="http://www.w3.org/2000/svg" xmlns:xlink="http://www.w3.org/1999/xlink" xmlns:lucid="lucid" width="1384" height="694"><g transform="translate(-78 282)" lucid:page-tab-id="0_0"><path d="M0-500h1500V500H0z" fill="#fff"/><path d="M266 100c8.84 0 16 26.86 16 60s-7.16 60-16 60H138c-8.84 0-16-26.86-16-60s7.16-60 16-60z" stroke="#008a0e" stroke-width="4" fill="#e3fae3"/><path d="M266 220c-8.83 0-16-26.86-16-60s7.17-60 16-60" stroke="#008a0e" stroke-width="4" fill="none"/><use xlink:href="#a" transform="matrix(1,0,0,1,127.00120054977018,105) translate(5.938271604938279 48.59722222222222)"/><use xlink:href="#b" transform="matrix(1,0,0,1,127.00120054977018,105) translate(66.7283950617284 48.59722222222222)"/><use xlink:href="#c" transform="matrix(1,0,0,1,127.00120054977018,105) translate(12.185185185185198 69.93055555555554)"/><path d="M407 100c8.84 0 16 26.86 16 60s-7.16 60-16 60H279c-8.83 0-16-26.86-16-60s7.17-60 16-60z" stroke="#008a0e" stroke-width="4" fill="#e3fae3"/><path d="M407 220c-8.83 0-16-26.86-16-60s7.17-60 16-60" stroke="#008a0e" stroke-width="4" fill="none"/><use xlink:href="#d" transform="matrix(1,0,0,1,268.00120054977015,105) translate(35.543209876543216 58.90972222222222)"/><path d="M1100 122.5a10 10 0 0 1 10-10h140a10 10 0 0 1 10 10v70a10 10 0 0 1-10 10h-140a10 10 0 0 1-10-10z" stroke="#82755b" stroke-width="2" fill="#f7f4e4"/><use xlink:href="#e" transform="matrix(1,0,0,1,1112,124.50000000000003) translate(42.93827160493827 38.40277777777778)"/><path d="M1420 95c11.05 0 20 8.95 20 20s-8.95 20-20 20h-80c-11.05 0-20-8.95-20-20s8.95-20 20-20z" stroke="#82755b" stroke-width="2" fill="#f7f4e4"/><use xlink:href="#f" transform="matrix(1,0,0,1,1325,100) translate(32.196358024691364 19.65277777777778)"/><path d="M1420 175c11.05 0 20 8.95 20 20s-8.95 20-20 20h-80c-11.05 0-20-8.95-20-20s8.95-20 20-20z" stroke="#82755b" stroke-width="2" fill="#f7f4e4"/><use xlink:href="#g" transform="matrix(1,0,0,1,1325,180) translate(26.054382716049385 19.65277777777778)"/><path d="M1262 157.5h22a6 6 0 0 0 6-6V121a6 6 0 0 1 6-6h4.5" stroke="#82755b" stroke-width="2" fill="none"/><path d="M1262.03 158.47H1261v-1.94h1.03z" stroke="#82755b" stroke-width=".05" fill="#82755b"/><path d="M1315.76 115l-14.26 4.64v-9.28z" stroke="#82755b" stroke-width="2" fill="#82755b"/><path d="M1262 157.5h22a6 6 0 0 1 6 6V189a6 6 0 0 0 6 6h4.5" stroke="#82755b" stroke-width="2" fill="none"/><path d="M1262.03 158.47H1261v-1.94h1.03z" stroke="#82755b" stroke-width=".05" fill="#82755b"/><path d="M1315.76 195l-14.26 4.63v-9.26z" stroke="#82755b" stroke-width="2" fill="#82755b"/><path d="M1100 285a10 10 0 0 1 10-10h140a10 10 0 0 1 10 10v60a10 10 0 0 1-10 10h-140a10 10 0 0 1-10-10z" stroke="#82755b" stroke-width="2" fill="#f7f4e4"/><use xlink:href="#h" transform="matrix(1,0,0,1,1112,287) translate(13.7716049382716 31.77777777777778)"/><path d="M1100 211a6 6 0 0 1 6-6h148a6 6 0 0 1 6 6v48a6 6 0 0 1-6 6h-148a6 6 0 0 1-6-6z" fill="none"/><use xlink:href="#i" transform="matrix(1,0,0,1,1100,205.00000000000006) translate(59.25925925925925 56.88888888888889)"/><path d="M462-159.33a6 6 0 0 1 6-6h326a6 6 0 0 1 6 6v118.66a6 6 0 0 1-6 6H468a6 6 0 0 1-6-6z" stroke="#82755b" stroke-width="2" fill="#f7f4e4"/><use xlink:href="#j" transform="matrix(1,0,0,1,474.00120054977015,-153.33333333333331) translate(92.30864197530865 44.52777777777778)"/><use xlink:href="#k" transform="matrix(1,0,0,1,474.00120054977015,-153.33333333333331) translate(146.50617283950618 44.52777777777778)"/><use xlink:href="#l" transform="matrix(1,0,0,1,474.00120054977015,-153.33333333333331) translate(18.327160493827165 71.19444444444446)"/><use xlink:href="#m" transform="matrix(1,0,0,1,474.00120054977015,-153.33333333333331) translate(68.88271604938272 71.19444444444446)"/><use xlink:href="#n" transform="matrix(1,0,0,1,474.00120054977015,-153.33333333333331) translate(103.45061728395062 71.19444444444446)"/><use xlink:href="#o" transform="matrix(1,0,0,1,474.00120054977015,-153.33333333333331) translate(239.00617283950615 71.19444444444446)"/><path d="M460.5-100H359.4" stroke="#82755b" fill="none"/><path d="M461-99.53h-.5v-.94h.5z" stroke="#82755b" stroke-width=".05" fill="#82755b"/><path d="M344.62-100l14.27-4.64v9.28z" stroke="#82755b" fill="#82755b"/><path d="M182-160h160v120H182z" stroke="#82755b" stroke-width="2" fill="#f7f4e4"/><use xlink:href="#p" transform="matrix(1,0,0,1,194.00120054977015,-148) translate(47.043209876543216 53.77777777777778)"/><path d="M223 20c11.05 0 20 8.95 20 20s-8.95 20-20 20h-80c-11.04 0-20-8.95-20-20s8.96-20 20-20z" stroke="#82755b" stroke-width="2" fill="#f7f4e4"/><use xlink:href="#f" transform="matrix(1,0,0,1,128.00120054977018,25.00000000000003) translate(32.196358024691364 19.65277777777778)"/><path d="M383 20c11.05 0 20 8.95 20 20s-8.95 20-20 20h-80c-11.04 0-20-8.95-20-20s8.96-20 20-20z" stroke="#82755b" stroke-width="2" fill="#f7f4e4"/><use xlink:href="#q" transform="matrix(1,0,0,1,288.00120054977015,25.00000000000003) translate(26.054382716049385 19.65277777777778)"/><path d="M262-38.5V-16a6 6 0 0 1-6 6h-67a6 6 0 0 0-6 6v6.62" stroke="#82755b" fill="none"/><path d="M262.48-38.5h-.95v-.5h.95z" stroke="#82755b" stroke-width=".05" fill="#82755b"/><path d="M183 17.38l-4.63-14.26h9.27z" stroke="#82755b" fill="#82755b"/><path d="M262-38.5V-16a6 6 0 0 0 6 6h69a6 6 0 0 1 6 6v6.62" stroke="#82755b" fill="none"/><path d="M262.48-38.5h-.95v-.5h.95z" stroke="#82755b" stroke-width=".05" fill="#82755b"/><path d="M343 17.38l-4.63-14.26h9.27z" stroke="#82755b" fill="#82755b"/><path d="M180.5-100H86a6 6 0 0 0-6 6v248a6 6 0 0 0 6 6h17.62" stroke="#82755b" fill="none"/><path d="M181-99.53h-.5v-.94h.5z" stroke="#82755b" stroke-width=".05" fill="#82755b"/><path d="M118.38 160l-14.26 4.63v-9.26z" stroke="#82755b" fill="#82755b"/><path d="M1043 157.5h37.5" stroke="#82755b" stroke-width="2" fill="none"/><path d="M1043.03 158.47h-1.07l.04-.93v-1h1.03z" stroke="#82755b" stroke-width=".05" fill="#82755b"/><path d="M1095.76 157.5l-14.26 4.63v-9.26z" stroke="#82755b" stroke-width="2" fill="#82755b"/><path d="M1043 157.5h11a6 6 0 0 1 6 6V309a6 6 0 0 0 6 6h14.5" stroke="#82755b" stroke-width="2" fill="none"/><path d="M1043.03 158.47h-1.07l.04-.93v-1h1.03z" stroke="#82755b" stroke-width=".05" fill="#82755b"/><path d="M1095.76 315l-14.26 4.63v-9.26z" stroke="#82755b" stroke-width="2" fill="#82755b"/><g fill="none"><path d="M337 260a6 6 0 0 1 6 6v118a6 6 0 0 1-6 6H129a6 6 0 0 1-6-6V266a6 6 0 0 1 6-6z"/><path d="M123 260c0 5.52 4.48 10 10 10h90c5.52 0 10 4.48 10 10 0-5.52 4.48-10 10-10h90c5.52 0 10-4.48 10-10" stroke="#282c33" stroke-width="4"/></g><use xlink:href="#r" transform="matrix(1,-2.4492935982947064e-16,2.4492935982947064e-16,1,128.00120054977006,295) translate(-8.432098765432059 28.444444444444436)"/><use xlink:href="#s" transform="matrix(1,-2.4492935982947064e-16,2.4492935982947064e-16,1,128.00120054977006,295) translate(17.296296296296333 71.11111111111109)"/><g fill="none"><path d="M1014 260a6 6 0 0 1 6 6v118a6 6 0 0 1-6 6H366a6 6 0 0 1-6-6V266a6 6 0 0 1 6-6z"/><path d="M360 260c0 5.52 4.48 10 10 10h310c5.52 0 10 4.48 10 10 0-5.52 4.48-10 10-10h310c5.52 0 10-4.48 10-10" stroke="#282c33" stroke-width="4"/></g><use xlink:href="#t" transform="matrix(1,-2.4492935982947064e-16,2.4492935982947064e-16,1,365.00000000000006,294.99999999999994) translate(130.48148148148158 28.444444444444436)"/><use xlink:href="#u" transform="matrix(1,-2.4492935982947064e-16,2.4492935982947064e-16,1,365.00000000000006,294.99999999999994) translate(367.22222222222223 28.444444444444436)"/><path d="M547 100c8.84 0 16 26.86 16 60s-7.16 60-16 60H419c-8.83 0-16-26.86-16-60s7.17-60 16-60z" stroke="#008a0e" stroke-width="4" fill="#e3fae3"/><path d="M547 220c-8.84 0-16-26.86-16-60s7.16-60 16-60" stroke="#008a0e" stroke-width="4" fill="none"/><use xlink:href="#v" transform="matrix(1,0,0,1,408.00120054977015,105) translate(30.92592592592593 38.28472222222222)"/><use xlink:href="#w" transform="matrix(1,0,0,1,408.00120054977015,105) translate(30.086419753086425 59.61805555555555)"/><use xlink:href="#x" transform="matrix(1,0,0,1,408.00120054977015,105) translate(75.12345679012346 59.61805555555555)"/><use xlink:href="#y" transform="matrix(1,0,0,1,408.00120054977015,105) translate(20.580246913580254 80.95138888888889)"/><path d="M1200-254a6 6 0 0 1 6-6h228a6 6 0 0 1 6 6V34a6 6 0 0 1-6 6h-228a6 6 0 0 1-6-6z" stroke="#000" stroke-width="4" fill="#fff"/><use xlink:href="#z" transform="matrix(1,0,0,1,1212,-248) translate(0 17.77777777777778)"/><path d="M1220-30a10 10 0 0 1 10-10h180a10 10 0 0 1 10 10v40a10 10 0 0 1-10 10h-180a10 10 0 0 1-10-10z" stroke="#82755b" stroke-width="2" fill="#f7f4e4"/><use xlink:href="#A" transform="matrix(1,0,0,1,1232,-28) translate(0 22.27777777777778)"/><use xlink:href="#B" transform="matrix(1,0,0,1,1232,-28) translate(30.864197530864196 22.27777777777778)"/><path d="M1400-120c11.05 0 20 13.43 20 30s-8.95 30-20 30h-160c-11.05 0-20-13.43-20-30s8.95-30 20-30z" stroke="#008a0e" stroke-width="4" fill="#e3fae3"/><path d="M1400-60c-11.05 0-20-13.43-20-30s8.95-30 20-30" stroke="#008a0e" stroke-width="4" fill="none"/><use xlink:href="#C" transform="matrix(1,0,0,1,1225,-115) translate(36.01 30.27777777777778)"/><path d="M1400-200c11.05 0 20 13.43 20 30s-8.95 30-20 30h-160c-11.05 0-20-13.43-20-30s8.95-30 20-30z" stroke="#fc9432" stroke-width="4" fill="#fff3d9"/><path d="M1400-140c-11.05 0-20-13.43-20-30s8.95-30 20-30" stroke="#fc9432" stroke-width="4" fill="none"/><use xlink:href="#D" transform="matrix(1,0,0,1,1225,-195) translate(36.01 30.27777777777778)"/><path d="M684 100c8.84 0 16 26.86 16 60s-7.16 60-16 60H556c-8.84 0-16-26.86-16-60s7.16-60 16-60z" stroke="#008a0e" stroke-width="4" fill="#e3fae3"/><path d="M684 220c-8.84 0-16-26.86-16-60s7.16-60 16-60" stroke="#008a0e" stroke-width="4" fill="none"/><g><use xlink:href="#E" transform="matrix(1,0,0,1,545,105.00000000000006) translate(35.864197530864196 48.59722222222222)"/><use xlink:href="#F" transform="matrix(1,0,0,1,545,105.00000000000006) translate(0.3580246913580396 69.93055555555554)"/></g><path d="M824 100c8.84 0 16 26.86 16 60s-7.16 60-16 60H696c-8.84 0-16-26.86-16-60s7.16-60 16-60z" stroke="#fc9432" stroke-width="4" fill="#fff3d9"/><path d="M824 220c-8.84 0-16-26.86-16-60s7.16-60 16-60" stroke="#fc9432" stroke-width="4" fill="none"/><g><use xlink:href="#G" transform="matrix(1,0,0,1,684.9999999999999,105.00000000000006) translate(27.98765432098766 48.59722222222222)"/><use xlink:href="#H" transform="matrix(1,0,0,1,684.9999999999999,105.00000000000006) translate(18.629629629629633 69.93055555555554)"/></g><path d="M1001 165c10.5 0 19 11.2 19 25s-8.5 25-19 25H849c-10.5 0-19-11.2-19-25s8.5-25 19-25z" stroke="#fc9432" stroke-width="4" fill="#fff3d9"/><path d="M1001 215c-10.5 0-19-11.2-19-25s8.5-25 19-25" stroke="#fc9432" stroke-width="4" fill="none"/><g><use xlink:href="#I" transform="matrix(1,0,0,1,834.9999999999997,170) translate(17.660493827160508 14.944444444444443)"/><use xlink:href="#J" transform="matrix(1,0,0,1,834.9999999999997,170) translate(68.51851851851852 14.944444444444443)"/><use xlink:href="#K" transform="matrix(1,0,0,1,834.9999999999997,170) translate(33.78895061728396 33.61111111111111)"/><use xlink:href="#L" transform="matrix(1,0,0,1,834.9999999999997,170) translate(73.19635802469136 33.61111111111111)"/></g><path d="M1001 100c10.5 0 19 11.2 19 25s-8.5 25-19 25H849c-10.5 0-19-11.2-19-25s8.5-25 19-25z" stroke="#fc9432" stroke-width="4" fill="#fff3d9"/><path d="M1001 150c-10.5 0-19-11.2-19-25s8.5-25 19-25" stroke="#fc9432" stroke-width="4" fill="none"/><g><use xlink:href="#M" transform="matrix(1,0,0,1,834.9999999999997,105.00000000000006) translate(21.441358024691368 22.444444444444443)"/><use xlink:href="#N" transform="matrix(1,0,0,1,834.9999999999997,105.00000000000006) translate(106.04629629629629 22.444444444444443)"/></g><path d="M1040 157.5c0 31.76-8.95 57.5-20 57.5s-20-25.74-20-57.5 8.95-57.5 20-57.5 20 25.74 20 57.5z" stroke="#fc9432" stroke-width="4" fill="#fff3d9"/><defs><path fill="#3a414a" d="M136-208V0H84v-208H4v-40h212v40h-80" id="O"/><path fill="#3a414a" d="M25-224v-37h50v37H25zM25 0v-190h50V0H25" id="P"/><path fill="#3a414a" d="M137-138c1-29-70-34-71-4 15 46 118 7 119 86 1 83-164 76-172 9l43-7c4 19 20 25 44 25 33 8 57-30 24-41C81-84 22-81 20-136c-2-80 154-74 161-7" id="Q"/><path fill="#3a414a" d="M85 4C-2 5 27-109 22-190h50c7 57-23 150 33 157 60-5 35-97 40-157h50l1 190h-47c-2-12 1-28-3-38-12 25-28 42-61 42" id="R"/><path fill="#3a414a" d="M185-48c-13 30-37 53-82 52C43 2 14-33 14-96s30-98 90-98c62 0 83 45 84 108H66c0 31 8 55 39 56 18 0 30-7 34-22zm-45-69c5-46-57-63-70-21-2 6-4 13-4 21h74" id="S"/><g id="a"><use transform="matrix(0.049382716049382706,0,0,0.049382716049382706,0,0)" xlink:href="#O"/><use transform="matrix(0.049382716049382706,0,0,0.049382716049382706,10.469135802469134,0)" xlink:href="#P"/><use transform="matrix(0.049382716049382706,0,0,0.049382716049382706,15.407407407407405,0)" xlink:href="#Q"/><use transform="matrix(0.049382716049382706,0,0,0.049382716049382706,25.283950617283946,0)" xlink:href="#Q"/><use transform="matrix(0.049382716049382706,0,0,0.049382716049382706,35.16049382716049,0)" xlink:href="#R"/><use transform="matrix(0.049382716049382706,0,0,0.049382716049382706,45.9753086419753,0)" xlink:href="#S"/></g><path fill="#3a414a" d="M230 0l2-204L168 0h-37L68-204 70 0H24v-248h70l56 185 57-185h69V0h-46" id="T"/><path fill="#3a414a" d="M133-34C117-15 103 5 69 4 32 3 11-16 11-54c-1-60 55-63 116-61 1-26-3-47-28-47-18 1-26 9-28 27l-52-2c7-38 36-58 82-57s74 22 75 68l1 82c-1 14 12 18 25 15v27c-30 8-71 5-69-32zm-48 3c29 0 43-24 42-57-32 0-66-3-65 30 0 17 8 27 23 27" id="U"/><path fill="#3a414a" d="M114-157C55-157 80-60 75 0H25v-261h50l-1 109c12-26 28-41 61-42 86-1 58 113 63 194h-50c-7-57 23-157-34-157" id="V"/><g id="b"><use transform="matrix(0.049382716049382706,0,0,0.049382716049382706,0,0)" xlink:href="#T"/><use transform="matrix(0.049382716049382706,0,0,0.049382716049382706,14.765432098765428,0)" xlink:href="#U"/><use transform="matrix(0.049382716049382706,0,0,0.049382716049382706,24.641975308641968,0)" xlink:href="#Q"/><use transform="matrix(0.049382716049382706,0,0,0.049382716049382706,34.518518518518505,0)" xlink:href="#V"/></g><path fill="#3a414a" d="M67-125c0 54 23 88 75 88 28 0 53-7 68-21v-34h-60v-39h108v91C232-14 192 4 140 4 58 4 20-42 15-125 8-236 126-280 215-234c19 10 29 26 37 47l-47 15c-11-23-29-39-63-39-53 1-75 33-75 86" id="W"/><path fill="#3a414a" d="M135-194c87-1 58 113 63 194h-50c-7-57 23-157-34-157-59 0-34 97-39 157H25l-1-190h47c2 12-1 28 3 38 12-26 28-41 61-42" id="X"/><path fill="#3a414a" d="M135-150c-39-12-60 13-60 57V0H25l-1-190h47c2 13-1 29 3 40 6-28 27-53 61-41v41" id="Y"/><path fill="#3a414a" d="M115-3C79 11 28 4 28-45v-112H4v-33h27l15-45h31v45h36v33H77v99c-1 23 16 31 38 25v30" id="Z"/><path fill="#3a414a" d="M110-194c64 0 96 36 96 99 0 64-35 99-97 99-61 0-95-36-95-99 0-62 34-99 96-99zm-1 164c35 0 45-28 45-65 0-40-10-65-43-65-34 0-45 26-45 65 0 36 10 65 43 65" id="aa"/><g id="c"><use transform="matrix(0.049382716049382706,0,0,0.049382716049382706,0,0)" xlink:href="#W"/><use transform="matrix(0.049382716049382706,0,0,0.049382716049382706,13.827160493827158,0)" xlink:href="#S"/><use transform="matrix(0.049382716049382706,0,0,0.049382716049382706,23.7037037037037,0)" xlink:href="#X"/><use transform="matrix(0.049382716049382706,0,0,0.049382716049382706,34.51851851851851,0)" xlink:href="#S"/><use transform="matrix(0.049382716049382706,0,0,0.049382716049382706,44.39506172839505,0)" xlink:href="#Y"/><use transform="matrix(0.049382716049382706,0,0,0.049382716049382706,51.30864197530863,0)" xlink:href="#U"/><use transform="matrix(0.049382716049382706,0,0,0.049382716049382706,61.185185185185176,0)" xlink:href="#Z"/><use transform="matrix(0.049382716049382706,0,0,0.049382716049382706,67.06172839506172,0)" xlink:href="#P"/><use transform="matrix(0.049382716049382706,0,0,0.049382716049382706,71.99999999999999,0)" xlink:href="#aa"/><use transform="matrix(0.049382716049382706,0,0,0.049382716049382706,82.8148148148148,0)" xlink:href="#X"/></g><path fill="#3a414a" d="M25 0v-261h50V0H25" id="ab"/><path fill="#3a414a" d="M195-6C206 82 75 100 31 46c-4-6-6-13-8-21l49-6c3 16 16 24 34 25 40 0 42-37 40-79-11 22-30 35-61 35-53 0-70-43-70-97 0-56 18-96 73-97 30 0 46 14 59 34l2-30h47zm-90-29c32 0 41-27 41-63 0-35-9-62-40-62-32 0-39 29-40 63 0 36 9 62 39 62" id="ac"/><g id="d"><use transform="matrix(0.049382716049382706,0,0,0.049382716049382706,0,0)" xlink:href="#O"/><use transform="matrix(0.049382716049382706,0,0,0.049382716049382706,10.469135802469134,0)" xlink:href="#P"/><use transform="matrix(0.049382716049382706,0,0,0.049382716049382706,15.407407407407405,0)" xlink:href="#ab"/><use transform="matrix(0.049382716049382706,0,0,0.049382716049382706,20.345679012345677,0)" xlink:href="#P"/><use transform="matrix(0.049382716049382706,0,0,0.049382716049382706,25.283950617283953,0)" xlink:href="#X"/><use transform="matrix(0.049382716049382706,0,0,0.049382716049382706,36.09876543209876,0)" xlink:href="#ac"/></g><g id="e"><use transform="matrix(0.06172839506172839,0,0,0.06172839506172839,0,0)" xlink:href="#O"/><use transform="matrix(0.06172839506172839,0,0,0.06172839506172839,13.08641975308642,0)" xlink:href="#P"/><use transform="matrix(0.06172839506172839,0,0,0.06172839506172839,19.25925925925926,0)" xlink:href="#ab"/><use transform="matrix(0.06172839506172839,0,0,0.06172839506172839,25.432098765432098,0)" xlink:href="#S"/><use transform="matrix(0.06172839506172839,0,0,0.06172839506172839,37.77777777777778,0)" xlink:href="#Q"/></g><path fill="#3a414a" d="M240-174c0 40-23 61-54 70L253 0h-59l-57-94H76V0H24v-248c93 4 217-23 216 74zM76-134c48-2 112 12 112-38 0-48-66-32-112-35v73" id="ad"/><path fill="#3a414a" d="M231 0h-52l-39-155L100 0H48L-1-190h46L77-45c9-52 24-97 36-145h53l37 145 32-145h46" id="ae"/><g id="f"><use transform="matrix(0.06172839506172839,0,0,0.06172839506172839,0,0)" xlink:href="#ad"/><use transform="matrix(0.06172839506172839,0,0,0.06172839506172839,15.987654320987653,0)" xlink:href="#U"/><use transform="matrix(0.06172839506172839,0,0,0.06172839506172839,28.333333333333332,0)" xlink:href="#ae"/></g><path fill="#3a414a" d="M24 0v-248h52v208h133V0H24" id="af"/><path fill="#3a414a" d="M135-194c52 0 70 43 70 98 0 56-19 99-73 100-30 1-46-15-58-35L72 0H24l1-261h50v104c11-23 29-37 60-37zM114-30c31 0 40-27 40-66 0-37-7-63-39-63s-41 28-41 65c0 36 8 64 40 64" id="ag"/><g id="g"><use transform="matrix(0.06172839506172839,0,0,0.06172839506172839,0,0)" xlink:href="#af"/><use transform="matrix(0.06172839506172839,0,0,0.06172839506172839,13.518518518518517,0)" xlink:href="#U"/><use transform="matrix(0.06172839506172839,0,0,0.06172839506172839,25.864197530864196,0)" xlink:href="#ag"/><use transform="matrix(0.06172839506172839,0,0,0.06172839506172839,39.382716049382715,0)" xlink:href="#S"/><use transform="matrix(0.06172839506172839,0,0,0.06172839506172839,51.72839506172839,0)" xlink:href="#ab"/></g><path fill="#3a414a" d="M24-248c120-7 223 5 221 122C244-46 201 0 124 0H24v-248zM76-40c74 7 117-18 117-86 0-67-45-88-117-82v168" id="ah"/><path fill="#3a414a" d="M121-226c-27-7-43 5-38 36h38v33H83V0H34v-157H6v-33h28c-9-59 32-81 87-68v32" id="ai"/><path fill="#3a414a" d="M220-157c-53 9-28 100-34 157h-49v-107c1-27-5-49-29-50C55-147 81-57 75 0H25l-1-190h47c2 12-1 28 3 38 10-53 101-56 108 0 13-22 24-43 59-42 82 1 51 116 57 194h-49v-107c-1-25-5-48-29-50" id="aj"/><g id="h"><use transform="matrix(0.06172839506172839,0,0,0.06172839506172839,0,0)" xlink:href="#ah"/><use transform="matrix(0.06172839506172839,0,0,0.06172839506172839,15.987654320987653,0)" xlink:href="#U"/><use transform="matrix(0.06172839506172839,0,0,0.06172839506172839,28.333333333333332,0)" xlink:href="#Z"/><use transform="matrix(0.06172839506172839,0,0,0.06172839506172839,35.67901234567901,0)" xlink:href="#U"/><use transform="matrix(0.06172839506172839,0,0,0.06172839506172839,48.02469135802469,0)" xlink:href="#ai"/><use transform="matrix(0.06172839506172839,0,0,0.06172839506172839,55.37037037037037,0)" xlink:href="#Y"/><use transform="matrix(0.06172839506172839,0,0,0.06172839506172839,64.01234567901234,0)" xlink:href="#U"/><use transform="matrix(0.06172839506172839,0,0,0.06172839506172839,76.35802469135803,0)" xlink:href="#aj"/><use transform="matrix(0.06172839506172839,0,0,0.06172839506172839,96.11111111111111,0)" xlink:href="#S"/></g><path fill="#3a414a" d="M118-107v75H92v-75H18v-26h74v-75h26v75h74v26h-74" id="ak"/><use transform="matrix(0.19753086419753088,0,0,0.19753086419753088,0,0)" xlink:href="#ak" id="i"/><g id="j"><use transform="matrix(0.06172839506172839,0,0,0.06172839506172839,0,0)" xlink:href="#ah"/><use transform="matrix(0.06172839506172839,0,0,0.06172839506172839,15.987654320987653,0)" xlink:href="#U"/><use transform="matrix(0.06172839506172839,0,0,0.06172839506172839,28.333333333333332,0)" xlink:href="#Z"/><use transform="matrix(0.06172839506172839,0,0,0.06172839506172839,35.67901234567901,0)" xlink:href="#U"/></g><path fill="#3a414a" d="M169-182c-1-43-94-46-97-3 18 66 151 10 154 114 3 95-165 93-204 36-6-8-10-19-12-30l50-8c3 46 112 56 116 5-17-69-150-10-154-114-4-87 153-88 188-35 5 8 8 18 10 28" id="al"/><path fill="#3a414a" d="M190-63c-7 42-38 67-86 67-59 0-84-38-90-98-12-110 154-137 174-36l-49 2c-2-19-15-32-35-32-30 0-35 28-38 64-6 74 65 87 74 30" id="am"/><g id="k"><use transform="matrix(0.06172839506172839,0,0,0.06172839506172839,0,0)" xlink:href="#al"/><use transform="matrix(0.06172839506172839,0,0,0.06172839506172839,14.814814814814813,0)" xlink:href="#aa"/><use transform="matrix(0.06172839506172839,0,0,0.06172839506172839,28.33333333333333,0)" xlink:href="#R"/><use transform="matrix(0.06172839506172839,0,0,0.06172839506172839,41.85185185185185,0)" xlink:href="#Y"/><use transform="matrix(0.06172839506172839,0,0,0.06172839506172839,50.49382716049382,0)" xlink:href="#am"/><use transform="matrix(0.06172839506172839,0,0,0.06172839506172839,62.8395061728395,0)" xlink:href="#S"/></g><path fill="#3a414a" d="M87 75C49 33 22-17 22-94c0-76 28-126 65-167h31c-38 41-64 92-64 168S80 34 118 75H87" id="an"/><path fill="#3a414a" d="M100-194c63 0 86 42 84 106H49c0 40 14 67 53 68 26 1 43-12 49-29l28 8c-11 28-37 45-77 45C44 4 14-33 15-96c1-61 26-98 85-98zm52 81c6-60-76-77-97-28-3 7-6 17-6 28h103" id="ao"/><path fill="#3a414a" d="M33 0v-38h34V0H33" id="ap"/><path fill="#3a414a" d="M177-190C167-65 218 103 67 71c-23-6-38-20-44-43l32-5c15 47 100 32 89-28v-30C133-14 115 1 83 1 29 1 15-40 15-95c0-56 16-97 71-98 29-1 48 16 59 35 1-10 0-23 2-32h30zM94-22c36 0 50-32 50-73 0-42-14-75-50-75-39 0-46 34-46 75s6 73 46 73" id="aq"/><g id="l"><use transform="matrix(0.06172839506172839,0,0,0.06172839506172839,0,0)" xlink:href="#an"/><use transform="matrix(0.06172839506172839,0,0,0.06172839506172839,7.345679012345679,0)" xlink:href="#ao"/><use transform="matrix(0.06172839506172839,0,0,0.06172839506172839,19.691358024691358,0)" xlink:href="#ap"/><use transform="matrix(0.06172839506172839,0,0,0.06172839506172839,25.864197530864196,0)" xlink:href="#aq"/><use transform="matrix(0.06172839506172839,0,0,0.06172839506172839,38.20987654320987,0)" xlink:href="#ap"/></g><path fill="#3a414a" d="M33 0v-248h34V0H33" id="ar"/><path fill="#3a414a" d="M108 0H70L1-190h34L89-25l56-165h34" id="as"/><path fill="#3a414a" d="M179-190L93 31C79 59 56 82 12 73V49c39 6 53-20 64-50L1-190h34L92-34l54-156h33" id="at"/><g id="m"><use transform="matrix(0.06172839506172839,0,0,0.06172839506172839,0,0)" xlink:href="#ar"/><use transform="matrix(0.06172839506172839,0,0,0.06172839506172839,6.172839506172839,0)" xlink:href="#as"/><use transform="matrix(0.06172839506172839,0,0,0.06172839506172839,17.28395061728395,0)" xlink:href="#at"/></g><path fill="#3a414a" d="M143 4C61 4 22-44 18-125c-5-107 100-154 193-111 17 8 29 25 37 43l-32 9c-13-25-37-40-76-40-61 0-88 39-88 99 0 61 29 100 91 101 35 0 62-11 79-27v-45h-74v-28h105v86C228-13 192 4 143 4" id="au"/><path fill="#3a414a" d="M24 0v-261h32V0H24" id="av"/><path fill="#3a414a" d="M24-231v-30h32v30H24zM24 0v-190h32V0H24" id="aw"/><path fill="#3a414a" d="M100-194c62-1 85 37 85 99 1 63-27 99-86 99S16-35 15-95c0-66 28-99 85-99zM99-20c44 1 53-31 53-75 0-43-8-75-51-75s-53 32-53 75 10 74 51 75" id="ax"/><path fill="#3a414a" d="M115-194c53 0 69 39 70 98 0 66-23 100-70 100C84 3 66-7 56-30L54 0H23l1-261h32v101c10-23 28-34 59-34zm-8 174c40 0 45-34 45-75 0-40-5-75-45-74-42 0-51 32-51 76 0 43 10 73 51 73" id="ay"/><path fill="#3a414a" d="M141-36C126-15 110 5 73 4 37 3 15-17 15-53c-1-64 63-63 125-63 3-35-9-54-41-54-24 1-41 7-42 31l-33-3c5-37 33-52 76-52 45 0 72 20 72 64v82c-1 20 7 32 28 27v20c-31 9-61-2-59-35zM48-53c0 20 12 33 32 33 41-3 63-29 60-74-43 2-92-5-92 41" id="az"/><path fill="#3a414a" d="M135-143c-3-34-86-38-87 0 15 53 115 12 119 90S17 21 10-45l28-5c4 36 97 45 98 0-10-56-113-15-118-90-4-57 82-63 122-42 12 7 21 19 24 35" id="aA"/><path fill="#3a414a" d="M59-47c-2 24 18 29 38 22v24C64 9 27 4 27-40v-127H5v-23h24l9-43h21v43h35v23H59v120" id="aB"/><path fill="#3a414a" d="M210-169c-67 3-38 105-44 169h-31v-121c0-29-5-50-35-48C34-165 62-65 56 0H25l-1-190h30c1 10-1 24 2 32 10-44 99-50 107 0 11-21 27-35 58-36 85-2 47 119 55 194h-31v-121c0-29-5-49-35-48" id="aC"/><g id="n"><use transform="matrix(0.06172839506172839,0,0,0.06172839506172839,0,0)" xlink:href="#au"/><use transform="matrix(0.06172839506172839,0,0,0.06172839506172839,17.28395061728395,0)" xlink:href="#av"/><use transform="matrix(0.06172839506172839,0,0,0.06172839506172839,22.160493827160494,0)" xlink:href="#aw"/><use transform="matrix(0.06172839506172839,0,0,0.06172839506172839,27.037037037037038,0)" xlink:href="#ax"/><use transform="matrix(0.06172839506172839,0,0,0.06172839506172839,39.382716049382715,0)" xlink:href="#ay"/><use transform="matrix(0.06172839506172839,0,0,0.06172839506172839,51.72839506172839,0)" xlink:href="#av"/><use transform="matrix(0.06172839506172839,0,0,0.06172839506172839,56.60493827160494,0)" xlink:href="#az"/><use transform="matrix(0.06172839506172839,0,0,0.06172839506172839,68.95061728395062,0)" xlink:href="#aA"/><use transform="matrix(0.06172839506172839,0,0,0.06172839506172839,80.06172839506173,0)" xlink:href="#aB"/><use transform="matrix(0.06172839506172839,0,0,0.06172839506172839,86.23456790123457,0)" xlink:href="#ax"/><use transform="matrix(0.06172839506172839,0,0,0.06172839506172839,98.58024691358025,0)" xlink:href="#aC"/><use transform="matrix(0.06172839506172839,0,0,0.06172839506172839,117.03703703703704,0)" xlink:href="#az"/></g><path fill="#3a414a" d="M205 0l-28-72H64L36 0H1l101-248h38L239 0h-34zm-38-99l-47-123c-12 45-31 82-46 123h93" id="aD"/><path fill="#3a414a" d="M33-261c38 41 65 92 65 168S71 34 33 75H2C39 34 66-17 66-93S39-220 2-261h31" id="aE"/><g id="o"><use transform="matrix(0.06172839506172839,0,0,0.06172839506172839,0,0)" xlink:href="#aD"/><use transform="matrix(0.06172839506172839,0,0,0.06172839506172839,14.814814814814813,0)" xlink:href="#aB"/><use transform="matrix(0.06172839506172839,0,0,0.06172839506172839,20.98765432098765,0)" xlink:href="#av"/><use transform="matrix(0.06172839506172839,0,0,0.06172839506172839,25.864197530864196,0)" xlink:href="#az"/><use transform="matrix(0.06172839506172839,0,0,0.06172839506172839,38.20987654320987,0)" xlink:href="#aA"/><use transform="matrix(0.06172839506172839,0,0,0.06172839506172839,49.32098765432099,0)" xlink:href="#aE"/></g><path fill="#3a414a" d="M275 0h-61l-44-196L126 0H64L0-248h53L97-49l45-199h58l43 199 44-199h52" id="aF"/><path fill="#3a414a" d="M24 0v-248h52V0H24" id="aG"/><g id="p"><use transform="matrix(0.06172839506172839,0,0,0.06172839506172839,0,0)" xlink:href="#aF"/><use transform="matrix(0.06172839506172839,0,0,0.06172839506172839,20.925925925925924,0)" xlink:href="#al"/><use transform="matrix(0.06172839506172839,0,0,0.06172839506172839,35.74074074074073,0)" xlink:href="#aG"/></g><g id="q"><use transform="matrix(0.06172839506172839,0,0,0.06172839506172839,0,0)" xlink:href="#af"/><use transform="matrix(0.06172839506172839,0,0,0.06172839506172839,13.518518518518517,0)" xlink:href="#U"/><use transform="matrix(0.06172839506172839,0,0,0.06172839506172839,25.864197530864196,0)" xlink:href="#ag"/><use transform="matrix(0.06172839506172839,0,0,0.06172839506172839,39.382716049382715,0)" xlink:href="#S"/><use transform="matrix(0.06172839506172839,0,0,0.06172839506172839,51.72839506172839,0)" xlink:href="#ab"/></g><path fill="#3a414a" d="M30-248c87 1 191-15 191 75 0 78-77 80-158 76V0H30v-248zm33 125c57 0 124 11 124-50 0-59-68-47-124-48v98" id="aH"/><path fill="#3a414a" d="M114-163C36-179 61-72 57 0H25l-1-190h30c1 12-1 29 2 39 6-27 23-49 58-41v29" id="aI"/><path fill="#3a414a" d="M115-194c55 1 70 41 70 98S169 2 115 4C84 4 66-9 55-30l1 105H24l-1-265h31l2 30c10-21 28-34 59-34zm-8 174c40 0 45-34 45-75s-6-73-45-74c-42 0-51 32-51 76 0 43 10 73 51 73" id="aJ"/><path fill="#3a414a" d="M96-169c-40 0-48 33-48 73s9 75 48 75c24 0 41-14 43-38l32 2c-6 37-31 61-74 61-59 0-76-41-82-99-10-93 101-131 147-64 4 7 5 14 7 22l-32 3c-4-21-16-35-41-35" id="aK"/><path fill="#3a414a" d="M117-194c89-4 53 116 60 194h-32v-121c0-31-8-49-39-48C34-167 62-67 57 0H25l-1-190h30c1 10-1 24 2 32 11-22 29-35 61-36" id="aL"/><g id="r"><use transform="matrix(0.0987654320987654,0,0,0.0987654320987654,0,0)" xlink:href="#aH"/><use transform="matrix(0.0987654320987654,0,0,0.0987654320987654,23.703703703703695,0)" xlink:href="#aI"/><use transform="matrix(0.0987654320987654,0,0,0.0987654320987654,35.45679012345678,0)" xlink:href="#ao"/><use transform="matrix(0.0987654320987654,0,0,0.0987654320987654,55.20987654320986,0)" xlink:href="#aJ"/><use transform="matrix(0.0987654320987654,0,0,0.0987654320987654,74.96296296296293,0)" xlink:href="#aI"/><use transform="matrix(0.0987654320987654,0,0,0.0987654320987654,86.71604938271602,0)" xlink:href="#ax"/><use transform="matrix(0.0987654320987654,0,0,0.0987654320987654,106.4691358024691,0)" xlink:href="#aK"/><use transform="matrix(0.0987654320987654,0,0,0.0987654320987654,124.24691358024687,0)" xlink:href="#ao"/><use transform="matrix(0.0987654320987654,0,0,0.0987654320987654,143.99999999999994,0)" xlink:href="#aA"/><use transform="matrix(0.0987654320987654,0,0,0.0987654320987654,161.77777777777771,0)" xlink:href="#aA"/><use transform="matrix(0.0987654320987654,0,0,0.0987654320987654,179.5555555555555,0)" xlink:href="#aw"/><use transform="matrix(0.0987654320987654,0,0,0.0987654320987654,187.35802469135794,0)" xlink:href="#aL"/><use transform="matrix(0.0987654320987654,0,0,0.0987654320987654,207.11111111111103,0)" xlink:href="#aq"/></g><path fill="#3a414a" d="M185-189c-5-48-123-54-124 2 14 75 158 14 163 119 3 78-121 87-175 55-17-10-28-26-33-46l33-7c5 56 141 63 141-1 0-78-155-14-162-118-5-82 145-84 179-34 5 7 8 16 11 25" id="aM"/><path fill="#3a414a" d="M85-194c31 0 48 13 60 33l-1-100h32l1 261h-30c-2-10 0-23-3-31C134-8 116 4 85 4 32 4 16-35 15-94c0-66 23-100 70-100zm9 24c-40 0-46 34-46 75 0 40 6 74 45 74 42 0 51-32 51-76 0-42-9-74-50-73" id="aN"/><path fill="#3a414a" d="M16-82v-28h88v28H16" id="aO"/><path fill="#3a414a" d="M30 0v-248h33v221h125V0H30" id="aP"/><g id="s"><use transform="matrix(0.0987654320987654,0,0,0.0987654320987654,0,0)" xlink:href="#aM"/><use transform="matrix(0.0987654320987654,0,0,0.0987654320987654,23.703703703703695,0)" xlink:href="#av"/><use transform="matrix(0.0987654320987654,0,0,0.0987654320987654,31.506172839506164,0)" xlink:href="#aw"/><use transform="matrix(0.0987654320987654,0,0,0.0987654320987654,39.30864197530863,0)" xlink:href="#aN"/><use transform="matrix(0.0987654320987654,0,0,0.0987654320987654,59.06172839506171,0)" xlink:href="#ao"/><use transform="matrix(0.0987654320987654,0,0,0.0987654320987654,78.81481481481478,0)" xlink:href="#aO"/><use transform="matrix(0.0987654320987654,0,0,0.0987654320987654,90.56790123456787,0)" xlink:href="#aP"/><use transform="matrix(0.0987654320987654,0,0,0.0987654320987654,110.32098765432094,0)" xlink:href="#ao"/><use transform="matrix(0.0987654320987654,0,0,0.0987654320987654,130.07407407407402,0)" xlink:href="#as"/><use transform="matrix(0.0987654320987654,0,0,0.0987654320987654,147.8518518518518,0)" xlink:href="#ao"/><use transform="matrix(0.0987654320987654,0,0,0.0987654320987654,167.60493827160488,0)" xlink:href="#av"/></g><g id="t"><use transform="matrix(0.0987654320987654,0,0,0.0987654320987654,0,0)" xlink:href="#aH"/><use transform="matrix(0.0987654320987654,0,0,0.0987654320987654,23.703703703703695,0)" xlink:href="#aI"/><use transform="matrix(0.0987654320987654,0,0,0.0987654320987654,35.45679012345678,0)" xlink:href="#ao"/><use transform="matrix(0.0987654320987654,0,0,0.0987654320987654,55.20987654320986,0)" xlink:href="#aJ"/><use transform="matrix(0.0987654320987654,0,0,0.0987654320987654,74.96296296296293,0)" xlink:href="#aI"/><use transform="matrix(0.0987654320987654,0,0,0.0987654320987654,86.71604938271602,0)" xlink:href="#ax"/><use transform="matrix(0.0987654320987654,0,0,0.0987654320987654,106.4691358024691,0)" xlink:href="#aK"/><use transform="matrix(0.0987654320987654,0,0,0.0987654320987654,124.24691358024687,0)" xlink:href="#ao"/><use transform="matrix(0.0987654320987654,0,0,0.0987654320987654,143.99999999999994,0)" xlink:href="#aA"/><use transform="matrix(0.0987654320987654,0,0,0.0987654320987654,161.77777777777771,0)" xlink:href="#aA"/><use transform="matrix(0.0987654320987654,0,0,0.0987654320987654,179.5555555555555,0)" xlink:href="#aw"/><use transform="matrix(0.0987654320987654,0,0,0.0987654320987654,187.35802469135794,0)" xlink:href="#aL"/><use transform="matrix(0.0987654320987654,0,0,0.0987654320987654,207.11111111111103,0)" xlink:href="#aq"/></g><path fill="#3a414a" d="M127-220V0H93v-220H8v-28h204v28h-85" id="aQ"/><g id="u"><use transform="matrix(0.0987654320987654,0,0,0.0987654320987654,0,0)" xlink:href="#aQ"/><use transform="matrix(0.0987654320987654,0,0,0.0987654320987654,20.345679012345673,0)" xlink:href="#aw"/><use transform="matrix(0.0987654320987654,0,0,0.0987654320987654,28.148148148148138,0)" xlink:href="#av"/><use transform="matrix(0.0987654320987654,0,0,0.0987654320987654,35.950617283950606,0)" xlink:href="#ao"/><use transform="matrix(0.0987654320987654,0,0,0.0987654320987654,55.70370370370369,0)" xlink:href="#aO"/><use transform="matrix(0.0987654320987654,0,0,0.0987654320987654,67.45679012345676,0)" xlink:href="#aP"/><use transform="matrix(0.0987654320987654,0,0,0.0987654320987654,87.20987654320983,0)" xlink:href="#ao"/><use transform="matrix(0.0987654320987654,0,0,0.0987654320987654,106.9629629629629,0)" xlink:href="#as"/><use transform="matrix(0.0987654320987654,0,0,0.0987654320987654,124.74074074074068,0)" xlink:href="#ao"/><use transform="matrix(0.0987654320987654,0,0,0.0987654320987654,144.49382716049377,0)" xlink:href="#av"/></g><path fill="#3a414a" d="M24 0v-248h195v40H76v63h132v40H76v65h150V0H24" id="aR"/><path fill="#3a414a" d="M144 0l-44-69L55 0H2l70-98-66-92h53l41 62 40-62h54l-67 91 71 99h-54" id="aS"/><path fill="#3a414a" d="M135-194c53 0 70 44 70 98 0 56-19 98-73 100-31 1-45-17-59-34 3 33 2 69 2 105H25l-1-265h48c2 10 0 23 3 31 11-24 29-35 60-35zM114-30c33 0 39-31 40-66 0-38-9-64-40-64-56 0-55 130 0 130" id="aT"/><g id="v"><use transform="matrix(0.049382716049382706,0,0,0.049382716049382706,0,0)" xlink:href="#aR"/><use transform="matrix(0.049382716049382706,0,0,0.049382716049382706,11.85185185185185,0)" xlink:href="#aS"/><use transform="matrix(0.049382716049382706,0,0,0.049382716049382706,21.728395061728392,0)" xlink:href="#aT"/><use transform="matrix(0.049382716049382706,0,0,0.049382716049382706,32.5432098765432,0)" xlink:href="#aa"/><use transform="matrix(0.049382716049382706,0,0,0.049382716049382706,43.35802469135801,0)" xlink:href="#Y"/><use transform="matrix(0.049382716049382706,0,0,0.049382716049382706,50.271604938271594,0)" xlink:href="#Z"/></g><g id="w"><use transform="matrix(0.049382716049382706,0,0,0.049382716049382706,0,0)" xlink:href="#O"/><use transform="matrix(0.049382716049382706,0,0,0.049382716049382706,10.469135802469134,0)" xlink:href="#P"/><use transform="matrix(0.049382716049382706,0,0,0.049382716049382706,15.407407407407405,0)" xlink:href="#ab"/><use transform="matrix(0.049382716049382706,0,0,0.049382716049382706,20.345679012345677,0)" xlink:href="#S"/><use transform="matrix(0.049382716049382706,0,0,0.049382716049382706,30.222222222222218,0)" xlink:href="#Q"/></g><path fill="#3a414a" d="M168-19C124 19 11 11 16-68c3-43 29-60 59-75-25-44-12-111 53-106 37 3 64 15 64 52 0 43-40 52-69 68 12 22 27 41 43 59 14-19 21-38 28-64l37 13c-8 29-19 52-34 74 12 10 32 16 52 10v35c-28 11-65-2-81-17zm-58-139c19-9 43-14 43-39 0-14-10-22-25-22-34 0-33 41-18 61zM60-68c-3 40 55 47 79 25-18-20-34-42-48-67-18 8-30 20-31 42" id="aU"/><use transform="matrix(0.049382716049382706,0,0,0.049382716049382706,0,0)" xlink:href="#aU" id="x"/><path fill="#3a414a" d="M88-194c31-1 46 15 58 34l-1-101h50l1 261h-48c-2-10 0-23-3-31C134-8 116 4 84 4 32 4 16-41 15-95c0-56 19-97 73-99zm17 164c33 0 40-30 41-66 1-37-9-64-41-64s-38 30-39 65c0 43 13 65 39 65" id="aV"/><g id="y"><use transform="matrix(0.049382716049382706,0,0,0.049382716049382706,0,0)" xlink:href="#T"/><use transform="matrix(0.049382716049382706,0,0,0.049382716049382706,14.765432098765428,0)" xlink:href="#S"/><use transform="matrix(0.049382716049382706,0,0,0.049382716049382706,24.641975308641968,0)" xlink:href="#Z"/><use transform="matrix(0.049382716049382706,0,0,0.049382716049382706,30.51851851851851,0)" xlink:href="#U"/><use transform="matrix(0.049382716049382706,0,0,0.049382716049382706,40.39506172839505,0)" xlink:href="#aV"/><use transform="matrix(0.049382716049382706,0,0,0.049382716049382706,51.20987654320986,0)" xlink:href="#U"/><use transform="matrix(0.049382716049382706,0,0,0.049382716049382706,61.08641975308641,0)" xlink:href="#Z"/><use transform="matrix(0.049382716049382706,0,0,0.049382716049382706,66.96296296296295,0)" xlink:href="#U"/></g><g id="z"><use transform="matrix(0.06172839506172839,0,0,0.06172839506172839,0,0)" xlink:href="#af"/><use transform="matrix(0.06172839506172839,0,0,0.06172839506172839,13.518518518518517,0)" xlink:href="#S"/><use transform="matrix(0.06172839506172839,0,0,0.06172839506172839,25.864197530864196,0)" xlink:href="#ac"/><use transform="matrix(0.06172839506172839,0,0,0.06172839506172839,39.382716049382715,0)" xlink:href="#S"/><use transform="matrix(0.06172839506172839,0,0,0.06172839506172839,51.72839506172839,0)" xlink:href="#X"/><use transform="matrix(0.06172839506172839,0,0,0.06172839506172839,65.24691358024691,0)" xlink:href="#aV"/></g><path fill="#3a414a" d="M30-248c118-7 216 8 213 122C240-48 200 0 122 0H30v-248zM63-27c89 8 146-16 146-99s-60-101-146-95v194" id="aW"/><g id="B"><use transform="matrix(0.06172839506172839,0,0,0.06172839506172839,0,0)" xlink:href="#aW"/><use transform="matrix(0.06172839506172839,0,0,0.06172839506172839,15.987654320987653,0)" xlink:href="#az"/><use transform="matrix(0.06172839506172839,0,0,0.06172839506172839,28.333333333333332,0)" xlink:href="#aB"/><use transform="matrix(0.06172839506172839,0,0,0.06172839506172839,34.50617283950617,0)" xlink:href="#az"/></g><g id="C"><use transform="matrix(0.06172839506172839,0,0,0.06172839506172839,0,0)" xlink:href="#aW"/><use transform="matrix(0.06172839506172839,0,0,0.06172839506172839,15.987654320987653,0)" xlink:href="#ax"/><use transform="matrix(0.06172839506172839,0,0,0.06172839506172839,28.333333333333332,0)" xlink:href="#aL"/><use transform="matrix(0.06172839506172839,0,0,0.06172839506172839,40.67901234567901,0)" xlink:href="#ao"/></g><path fill="#3a414a" d="M232-93c-1 65-40 97-104 97C67 4 28-28 28-90v-158h33c8 89-33 224 67 224 102 0 64-133 71-224h33v155" id="aX"/><g id="D"><use transform="matrix(0.06172839506172839,0,0,0.06172839506172839,0,0)" xlink:href="#aX"/><use transform="matrix(0.06172839506172839,0,0,0.06172839506172839,15.987654320987653,0)" xlink:href="#aJ"/><use transform="matrix(0.06172839506172839,0,0,0.06172839506172839,28.333333333333332,0)" xlink:href="#aK"/><use transform="matrix(0.06172839506172839,0,0,0.06172839506172839,39.44444444444444,0)" xlink:href="#ax"/><use transform="matrix(0.06172839506172839,0,0,0.06172839506172839,51.79012345679012,0)" xlink:href="#aC"/><use transform="matrix(0.06172839506172839,0,0,0.06172839506172839,70.24691358024691,0)" xlink:href="#aw"/><use transform="matrix(0.06172839506172839,0,0,0.06172839506172839,75.12345679012346,0)" xlink:href="#aL"/><use transform="matrix(0.06172839506172839,0,0,0.06172839506172839,87.46913580246914,0)" xlink:href="#aq"/></g><path fill="#3a414a" d="M67-125c0 53 21 87 73 88 37 1 54-22 65-47l45 17C233-25 199 4 140 4 58 4 20-42 15-125 8-235 124-281 211-232c18 10 29 29 36 50l-46 12c-8-25-30-41-62-41-52 0-71 34-72 86" id="aY"/><g id="E"><use transform="matrix(0.049382716049382706,0,0,0.049382716049382706,0,0)" xlink:href="#aY"/><use transform="matrix(0.049382716049382706,0,0,0.049382716049382706,12.790123456790122,0)" xlink:href="#aa"/><use transform="matrix(0.049382716049382706,0,0,0.049382716049382706,23.604938271604937,0)" xlink:href="#ab"/><use transform="matrix(0.049382716049382706,0,0,0.049382716049382706,28.54320987654321,0)" xlink:href="#aa"/><use transform="matrix(0.049382716049382706,0,0,0.049382716049382706,39.358024691358025,0)" xlink:href="#Y"/></g><path fill="#3a414a" d="M175 0L67-191c6 58 2 128 3 191H24v-248h59L193-55c-6-58-2-129-3-193h46V0h-61" id="aZ"/><path fill="#3a414a" d="M12 0v-35l95-120H19v-35h142v35L67-36h103V0H12" id="ba"/><g id="F"><use transform="matrix(0.049382716049382706,0,0,0.049382716049382706,0,0)" xlink:href="#aZ"/><use transform="matrix(0.049382716049382706,0,0,0.049382716049382706,12.790123456790122,0)" xlink:href="#aa"/><use transform="matrix(0.049382716049382706,0,0,0.049382716049382706,23.604938271604937,0)" xlink:href="#Y"/><use transform="matrix(0.049382716049382706,0,0,0.049382716049382706,30.51851851851852,0)" xlink:href="#aj"/><use transform="matrix(0.049382716049382706,0,0,0.049382716049382706,46.32098765432098,0)" xlink:href="#U"/><use transform="matrix(0.049382716049382706,0,0,0.049382716049382706,56.19753086419752,0)" xlink:href="#ab"/><use transform="matrix(0.049382716049382706,0,0,0.049382716049382706,61.13580246913579,0)" xlink:href="#P"/><use transform="matrix(0.049382716049382706,0,0,0.049382716049382706,66.07407407407406,0)" xlink:href="#ba"/><use transform="matrix(0.049382716049382706,0,0,0.049382716049382706,74.96296296296295,0)" xlink:href="#U"/><use transform="matrix(0.049382716049382706,0,0,0.049382716049382706,84.83950617283949,0)" xlink:href="#Z"/><use transform="matrix(0.049382716049382706,0,0,0.049382716049382706,90.71604938271604,0)" xlink:href="#P"/><use transform="matrix(0.049382716049382706,0,0,0.049382716049382706,95.6543209876543,0)" xlink:href="#aa"/><use transform="matrix(0.049382716049382706,0,0,0.049382716049382706,106.46913580246911,0)" xlink:href="#X"/></g><path fill="#3a414a" d="M199 0l-22-63H83L61 0H9l90-248h61L250 0h-51zm-33-102l-36-108c-10 38-24 72-36 108h72" id="bb"/><g id="G"><use transform="matrix(0.049382716049382706,0,0,0.049382716049382706,0,0)" xlink:href="#bb"/><use transform="matrix(0.049382716049382706,0,0,0.049382716049382706,12.790123456790122,0)" xlink:href="#Y"/><use transform="matrix(0.049382716049382706,0,0,0.049382716049382706,19.703703703703702,0)" xlink:href="#Z"/><use transform="matrix(0.049382716049382706,0,0,0.049382716049382706,25.580246913580243,0)" xlink:href="#P"/><use transform="matrix(0.049382716049382706,0,0,0.049382716049382706,30.518518518518512,0)" xlink:href="#ai"/><use transform="matrix(0.049382716049382706,0,0,0.049382716049382706,36.395061728395056,0)" xlink:href="#U"/><use transform="matrix(0.049382716049382706,0,0,0.049382716049382706,46.271604938271594,0)" xlink:href="#am"/><use transform="matrix(0.049382716049382706,0,0,0.049382716049382706,56.14814814814814,0)" xlink:href="#Z"/></g><g id="H"><use transform="matrix(0.049382716049382706,0,0,0.049382716049382706,0,0)" xlink:href="#ah"/><use transform="matrix(0.049382716049382706,0,0,0.049382716049382706,12.790123456790122,0)" xlink:href="#S"/><use transform="matrix(0.049382716049382706,0,0,0.049382716049382706,22.666666666666664,0)" xlink:href="#Z"/><use transform="matrix(0.049382716049382706,0,0,0.049382716049382706,28.543209876543205,0)" xlink:href="#S"/><use transform="matrix(0.049382716049382706,0,0,0.049382716049382706,38.419753086419746,0)" xlink:href="#am"/><use transform="matrix(0.049382716049382706,0,0,0.049382716049382706,48.29629629629629,0)" xlink:href="#Z"/><use transform="matrix(0.049382716049382706,0,0,0.049382716049382706,54.17283950617284,0)" xlink:href="#P"/><use transform="matrix(0.049382716049382706,0,0,0.049382716049382706,59.111111111111114,0)" xlink:href="#aa"/><use transform="matrix(0.049382716049382706,0,0,0.049382716049382706,69.92592592592592,0)" xlink:href="#X"/></g><g id="I"><use transform="matrix(0.04320987654320987,0,0,0.04320987654320987,0,0)" xlink:href="#O"/><use transform="matrix(0.04320987654320987,0,0,0.04320987654320987,9.46296296296296,0)" xlink:href="#V"/><use transform="matrix(0.04320987654320987,0,0,0.04320987654320987,18.92592592592592,0)" xlink:href="#Y"/><use transform="matrix(0.04320987654320987,0,0,0.04320987654320987,24.975308641975303,0)" xlink:href="#aa"/><use transform="matrix(0.04320987654320987,0,0,0.04320987654320987,34.438271604938265,0)" xlink:href="#ae"/></g><g id="J"><use transform="matrix(0.04320987654320987,0,0,0.04320987654320987,0,0)" xlink:href="#aY"/><use transform="matrix(0.04320987654320987,0,0,0.04320987654320987,11.191358024691356,0)" xlink:href="#aa"/><use transform="matrix(0.04320987654320987,0,0,0.04320987654320987,20.654320987654316,0)" xlink:href="#Y"/><use transform="matrix(0.04320987654320987,0,0,0.04320987654320987,26.70370370370369,0)" xlink:href="#Y"/><use transform="matrix(0.04320987654320987,0,0,0.04320987654320987,32.753086419753075,0)" xlink:href="#R"/><use transform="matrix(0.04320987654320987,0,0,0.04320987654320987,42.21604938271604,0)" xlink:href="#aT"/><use transform="matrix(0.04320987654320987,0,0,0.04320987654320987,51.679012345679,0)" xlink:href="#Z"/></g><g id="K"><use transform="matrix(0.04320987654320987,0,0,0.04320987654320987,0,0)" xlink:href="#O"/><use transform="matrix(0.04320987654320987,0,0,0.04320987654320987,9.160493827160492,0)" xlink:href="#P"/><use transform="matrix(0.04320987654320987,0,0,0.04320987654320987,13.48148148148148,0)" xlink:href="#ab"/><use transform="matrix(0.04320987654320987,0,0,0.04320987654320987,17.802469135802465,0)" xlink:href="#S"/><use transform="matrix(0.04320987654320987,0,0,0.04320987654320987,26.444444444444432,0)" xlink:href="#Q"/></g><path fill="#3a414a" d="M123 10C108 53 80 86 19 72V37c35 8 53-11 59-39L3-190h52l48 148c12-52 28-100 44-148h51" id="bc"/><g id="L"><use transform="matrix(0.04320987654320987,0,0,0.04320987654320987,0,0)" xlink:href="#U"/><use transform="matrix(0.04320987654320987,0,0,0.04320987654320987,8.641975308641973,0)" xlink:href="#ae"/><use transform="matrix(0.04320987654320987,0,0,0.04320987654320987,20.740740740740733,0)" xlink:href="#U"/><use transform="matrix(0.04320987654320987,0,0,0.04320987654320987,29.382716049382708,0)" xlink:href="#bc"/></g><path fill="#3a414a" d="M128 0H69L1-190h53L99-40l48-150h52" id="bd"/><g id="M"><use transform="matrix(0.04320987654320987,0,0,0.04320987654320987,0,0)" xlink:href="#W"/><use transform="matrix(0.04320987654320987,0,0,0.04320987654320987,12.098765432098762,0)" xlink:href="#S"/><use transform="matrix(0.04320987654320987,0,0,0.04320987654320987,20.740740740740733,0)" xlink:href="#X"/><use transform="matrix(0.04320987654320987,0,0,0.04320987654320987,30.2037037037037,0)" xlink:href="#S"/><use transform="matrix(0.04320987654320987,0,0,0.04320987654320987,38.84567901234567,0)" xlink:href="#Y"/><use transform="matrix(0.04320987654320987,0,0,0.04320987654320987,44.89506172839505,0)" xlink:href="#U"/><use transform="matrix(0.04320987654320987,0,0,0.04320987654320987,53.537037037037024,0)" xlink:href="#Z"/><use transform="matrix(0.04320987654320987,0,0,0.04320987654320987,58.679012345679,0)" xlink:href="#P"/><use transform="matrix(0.04320987654320987,0,0,0.04320987654320987,62.999999999999986,0)" xlink:href="#bd"/><use transform="matrix(0.04320987654320987,0,0,0.04320987654320987,71.64197530864196,0)" xlink:href="#S"/></g><g id="N"><use transform="matrix(0.04320987654320987,0,0,0.04320987654320987,0,0)" xlink:href="#bb"/><use transform="matrix(0.04320987654320987,0,0,0.04320987654320987,11.191358024691356,0)" xlink:href="#aG"/></g></defs></g></svg>